<?xml version="1.0" encoding="utf-8"?>
<!-- Generator: Adobe Illustrator 19.0.0, SVG Export Plug-In . SVG Version: 6.00 Build 0)  -->
<svg version="1.1" id="Capa_1" xmlns="http://www.w3.org/2000/svg" xmlns:xlink="http://www.w3.org/1999/xlink" x="0px" y="0px"
	 viewBox="0 0 2834.6 1700.8" style="enable-background:new 0 0 2834.6 1700.8;" xml:space="preserve">
<style type="text/css">
	.st0{fill-rule:evenodd;clip-rule:evenodd;}
	.st1{fill-rule:evenodd;clip-rule:evenodd;fill:none;}
</style>
<g id="XMLID_182_">
	<path id="XMLID_693_" class="st0" d="M1539.8,609.8c-2.5,0.5-4.8,1.7-7.1,2.9c-6.9,3.6-13.7,7.2-20.5,10.8c-3.2,1.7-6.6,2-9.9,0.8
		c-3.3-1.2-6.6-2.8-9.6-4.6c-2.7-1.6-5.3-2.9-8.4-3.6c-5.2-1.1-7-0.4-9.3,4.3c-0.4,0.7-0.6,1.5-0.9,2.2c-2.7,6.7-5.5,13.4-5.7,20.8
		c0,1.4-0.5,2.8-0.8,4.2c-1.5,6.2-5,10.9-11,13.2c-3.6,1.4-5.9,3.7-7.5,7c-0.4,0.8-0.8,1.7-1.3,2.5c-0.6-2.2-0.8-4.3-0.7-6.3
		c0.3-8.7,0.6-17.3,1.1-26c0.3-4.4,1.7-8.5,5.2-11.6c2.3-2,4.6-4.1,6.9-6.1c6.7-5.7,9.4-12.9,7.8-21.5c-0.4-2.4-0.8-4.8-1.4-7.1
		c-1.1-4.4,0-7.9,3.8-10.6c3.3-2.3,6.7-4.5,9.8-7c4.7-3.7,9-7.8,11.4-13.5c1.2-2.8,1.4-5.5,0.3-8.4c-1.5-4.1-3.3-8-5.9-11.6
		c-2.6-3.6-5.3-7.4-7.4-11.3c-2-3.8-3.6-7.9-5-12c-0.8-2.4-1.4-5-1.6-7.5c-0.4-3.5-0.3-7-0.4-10.6c-0.1-3.7,0.1-7.4-0.2-11.1
		c-0.4-4.3-0.7-8.8-4.3-11.9c-2-1.8-4.2-3.6-6.4-5.1c-4.4-2.9-11.3-1.9-14.2,2.5c-3,4.5-6.3,9-6.6,14.8c-0.1,2.4-0.6,4.8-0.7,7.2
		c-0.3,6.9-1.4,13.7-2.7,20.5c-1,5-3.2,8.8-7.3,12c-6.1,4.8-11.4,10.4-14.9,17.5c-3.9,7.8-3.3,15.5-0.2,23.3
		c1.8,4.5,3.6,8.9,5.3,13.5c1.3,3.4,1.2,6.9-0.1,10.4c-1,2.6-1.7,5.2-2.8,7.7c-2.2,5.4-1.6,10.6,0.6,15.9
		c3.3,7.7,8.6,14.2,12.7,21.6c0.1,5.8,0.2,11.9,0.3,18c0,6.3-0.1,12.5-0.1,18.8c-0.1,6,2.4,11.9,1.5,18.8c-0.9-1.1-1.3-1.6-1.6-2.1
		c-1.8-4.3-3.5-8.6-5.4-12.9c-2.3-5.2-2.5-10.4-1.2-16c1.6-7.3,2.9-14.8,2.8-22.4c-0.1-8.5-4.3-14.2-11.8-17.8
		c-2.9-1.4-5.9-2.6-8.9-3.8c-3.2-1.3-5.4-3.5-6.1-7c-0.4-1.7-0.8-3.5-1.1-5.2c-0.9-4.4-1.6-8.9-2.8-13.2c-2-7.1-6.2-12.3-13.7-14.3
		c-1.1-0.3-2.2-0.6-3.2-1c-4.6-1.9-9-1.6-13.6,0.3c-7.2,2.9-14.7,4.1-22.2,1.2c-3-1.2-5.9-2.7-8.8-4.1c-5.6-2.8-11.1-5.9-16.9-8.4
		c-5.4-2.3-11-2-16.6-0.4c-4.5,6.2-6.4,12.7-4.3,20.1c0.7,2.3,1.1,4.7,1.5,7.1c0.7,4.4,2.4,8.2,5.5,11.6c4.3,4.6,8.9,8.8,14.3,12.2
		c9.3,5.8,16.5,13.5,20.5,23.8c1.4,3.7,2.4,7.7,3.6,11.5c0.7,2.1,1.2,4.4,2.1,6.4c2.5,5.9,9.2,9.3,15.5,8.2c3-0.5,6.1-1,9.1-1.6
		c4.3-0.9,7.6,0.7,9.9,4.3c1,1.5,1.9,3,2.7,4.5c1.7,3.3,4,6.1,6.3,9.1c3.5,4.5,8,6.2,13.4,6.6c2.9,0.2,5.7,0.6,8.6,0.9
		c9.4,12.4,27.2,61.1,26.9,71.6c-1.8,0.1-3.7,0.3-5.6,0.2c-6.6-0.1-13.3-0.4-19.8,1.6c-2,0.6-4.1,1.2-5.8,2.3
		c-7.2,5-12.1,11.9-16.3,19.5c-0.4,0.7-0.7,1.5-0.8,2.3c-0.8,5.1-1.7,10.2,0.3,15.2c0.5,1.3,0.9,2.8,1,4.2c0.1,5,2.3,9.4,4.9,13.5
		c1,1.6,2.2,3.1,3.5,4.6c3.5,0,7.1-0.1,10.6-0.1c-2-1.7-3.7-3.6-5.4-5.7c-1.1-1.4-2.1-2.9-3.2-4.2c-2.2-2.4-3.3-5.3-3.5-8.4
		c0.3,0.2,0.6,0.3,1,0.4c2.3,0.8,4.6,1.7,6.9,2.4c1.1,0.3,2.3,0.2,3.4,0c0.5-0.1,0.8-0.8,1.2-1.2c-3.6-4.7-7.8-6.9-12.6-6.6
		c0-2.2,0.3-4.4,1.1-6.5c5.1,2.9,13.8,6.5,16.9,6.8c1.5,0.2,2.7-0.1,3.2-1.6c0.4-1.4-0.1-2.6-1.4-3.3c-0.6-0.3-1.2-0.6-1.8-0.7
		c-5.2-1-10-3.2-14.8-5.5c-0.1-0.1-0.2-0.1-0.4-0.2c0.7-1.8,1.4-3.7,2.3-5.5c7.7,2.5,15.2,5.8,23.4,6.9c0.3,0,0.7-0.1,1-0.2
		c0.1,0,0.3-0.2,0.8-0.6c0.1-0.9,0.1-2.1,0.2-3.3c-1.2-0.5-2.1-1-3-1.3c-6.5-1.9-12.9-3.8-19.4-5.7l-0.1,0c0.8-0.7,1.7-1.3,2.6-1.7
		c1.3-0.6,2.6-1.2,3.9-1.7c0.2,0.1,0.3,0.2,0.5,0.3c2.6,1,5.3,1.8,8,2.4c2.2,0.6,4.3-0.6,4.7-2.4c0.3-1.3-0.5-2.9-1.9-3.6
		c4.6-1,9.2-1.7,13.9-2.4c14-2,27.7-0.7,41.2,3.2c3.7,1.1,7.5,2.2,11.3,2.6c6.3,0.6,9.6,4.7,12.7,9.3c0.3,0.4,0.6,0.8,0.7,1.3
		c1.5,5.7,3.9,11.2,4.4,17.2c0.5,5.8-1.3,11.1-3,16.5c-0.4,1.4-1.7,2.7-2.9,3.7c-0.4,0.3-0.7,0.6-1.1,0.9c2.8,0.1,5.5,0.2,8.3,0.4
		c0.3-0.6,0.6-1.2,0.8-1.8c1.5-4.2,2.9-8.6,3.6-13c0.9-5.9,0.5-11.9-1.3-17.6c-0.9-2.9-2-5.8-3.1-8.6c-2.7-6.8-7.6-11.7-13.9-14.8
		c-8.8-4.3-18.3-6.2-28-7.4c-1.9-0.2-3.9-0.3-5.7-2.3c0.6-6.9,0.7-14.2,3.7-21.5c5-0.4,9.4-0.6,13.7-1c4.5-0.4,8-2.4,10.1-6.5
		c1.6-3.1,2.3-6.3,2.6-9.7c0.6-6.2,4.1-10.7,9.3-13.9c4.4-2.7,8.9-5,14.4-4.6c5.1,0.3,7.8-2.9,9.1-7.2c1.2-4,2.2-8.1,2.7-12.2
		c0.4-3.1-0.1-6.4-0.2-9.6c-0.2-4.9,0.5-9.8,3.4-13.8c3.7-4.9,8.1-9.1,13.3-12.6c5.1-3.4,9.9-7.2,14.1-11.7
		c3.3-3.5,4.6-7.6,4.5-12.3C1559.5,615.3,1550.3,607.7,1539.8,609.8z M1431.6,606.7c-0.1,3.9-1.3,12.7-2.6,16.2
		c-1.1-0.9-1.9-1.4-2.5-2.2c-0.9-1.1-1.6-2.4-2.3-3.7c-3.2-5.2-4.2-10.5-1.7-16.5c1.6-3.9,3.2-8,3.4-12.5c0.3-5.2-1.5-9.8-3.4-14.4
		c-1.1-2.5-2.4-4.9-3.5-7.4c-1.5-3.1-2.2-6.3-2.2-9.8c0-3.3,0.8-6.3,2.6-9.1c4.2-6.4,9.3-11.9,15.5-16.5c2.4-1.8,3.9-4.1,4.8-6.9
		c3.2-9.4,4.3-19.1,4.4-28.9c0.1-6.2,1.9-11.6,5.1-16.8c1.6-2.7,4.7-3.8,7.5-2.3c4.5,2.3,7.9,5.7,8.8,10.9c0.8,4.4,1.1,8.8,0.5,13.4
		c-0.8,6.1-0.4,12.2,1.7,18.1c0.3,0.9,0.7,1.8,0.8,2.8c1.4,7.8,5.2,14.5,10.1,20.6c2.7,3.3,4.7,6.9,6.6,10.6c1.8,3.5,1.4,6.8-0.8,10
		c-3,4.3-6.7,7.8-11.1,10.6c-3.3,2.1-6.7,3.9-9.3,6.9c-3.4,3.9-4.6,8.3-3.4,13.4c0.6,2.3,1,4.7,1.5,7.1c1.9,9-4.8,17.2-11.7,20.7
		c-0.3,0.1-0.6,0-1.3,0c-0.1-1.2-0.5-2.4-0.4-3.6c1.5-14.2,3-28.4,4.6-42.6c0.6-5.7-0.2-11.2-1.8-16.6c-0.9-2.9-2.1-4.3-5-6.2
		c-3.5,0.2-5.5,2.5-6.7,5.4c-1.6,4.2-3.1,8.4-4.3,12.8c-1,3.4-1.5,6.9-2.3,10.4c-0.2,0.9-0.4,1.9-0.5,2.9
		C1432.3,591,1431.8,598.9,1431.6,606.7z M1393.4,682.1c-1.7-1.4-3.2-3.2-4.4-5.1c-1.9-2.8-3.6-5.7-5.1-8.7c-1.4-2.9-3.5-5-6-6.7
		c-2.6-1.8-5.5-2.7-8.7-1.9c-3.5,0.8-7,1.4-10.5,2c-2.7,0.5-5.2,0.2-7.4-1.5c-1.7-1.3-3-2.8-3.6-5c-1.1-4.2-2.2-8.4-3.6-12.5
		c-2.2-6.4-5.1-12.5-9.5-17.8c-3.8-4.4-8-8.4-13.1-11.4c-5.1-3.1-9.9-6.6-13.9-11.2c-1.6-1.8-3.2-3.8-3.8-6
		c-1.5-5.1-2.4-10.3-3.4-15.5c-0.2-0.9-0.3-2,0-2.9c1.7-6,3.9-7.2,8.8-6.9c3.8,0.3,7.3,1.6,10.6,3.3c4.4,2.3,8.8,4.8,13.1,7.4
		c9.4,5.6,19.3,7,29.8,3.3c1.4-0.5,2.8-0.9,4.1-1.5c9.1-4,21.6,1.5,23.9,12.3c0.9,4.2,1.6,8.5,2.4,12.8c0.5,2.3,1.1,4.7,1.7,7
		c1.3,4.6,4.6,7.2,9,8.7c2.1,0.8,4.2,1.7,6.4,2.3c3.8,1.2,6.2,4,8.6,6.8c1.8,2.1,2,4.8,2.1,7.3c0.3,6.5-1.1,12.8-2.8,19
		c-0.1,0.5-0.8,0.9-1.4,1.6c-1-1.2-1.9-2-2.6-3.1c-3.2-4.8-6.2-9.8-9.5-14.6c-2-2.9-4.2-5.7-6.6-8.3c-3.4-3.8-7.1-7.5-10.6-11.3
		c-0.2-0.2-0.4-0.5-0.7-0.7c-5.6-4.1-11-8.4-16.7-12.3c-4.1-2.8-8.7-5-13-7.4l-0.4-0.2c-2.3-1.1-4.7-1.9-6.8,0
		c-2.2,1.8-3.5,4.3-2.9,7.3c0.4,1.8,1,3.9,2.1,5.3c2.6,3.3,5.2,6.6,8.4,9.3c9.9,8.1,18.9,17.1,26.3,27.5
		c6.1,8.5,11.9,17.2,17.8,25.8c0.8,1.2,1.4,2.5,2.2,4C1399.8,684.5,1396.4,684.6,1393.4,682.1z M1444,758.8c-0.6-0.5-1.5-1-1.8-1.7
		c-1.3-3.3-2.5-6.6-3.6-10c-3.6-11.3-7-22.7-12-33.5c-3.6-7.7-7.3-15.4-11.3-22.9c-2.5-4.6-5.6-9-8.6-13.4
		c-6.9-10.1-13.6-20.4-21-30.1c-6.9-9.1-15.3-17-24.2-24.2c-3-2.4-5.6-5.3-8.1-8.2c-1.7-2-2.6-4.4-0.9-7.2c2.8-0.5,4.6,0.6,6.4,1.6
		c10.2,6,20.1,12.4,27.8,21.5c0.4,0.5,0.9,0.9,1.4,1.4c7.4,6.7,12.9,14.7,18,23.2c4.1,6.7,8.2,13.4,11.5,20.6
		c1.6,3.5,3.1,7.1,4.4,10.7c2.4,6.3,4.7,12.6,6.9,19c4.3,12.8,8.6,25.5,12.7,38.4c1.5,4.6,2.3,9.5,3.3,14.3
		C1444.6,758.5,1444.3,758.6,1444,758.8z M1442.4,627c-0.4,4.6-1.1,9.2-1.7,13.8c-0.1,0.8-0.3,1.7,0,2.4c2,4.2,1,8.6,0.9,12.8
		c-0.3,11.9-0.8,23.7-1.2,35.6c-0.2,4-0.4,8-0.6,12l-0.7,0.1c-0.3-3.2-0.6-6.3-0.7-9.5c-0.3-9.6-3.2-19-2.8-28.7
		c0.1-1.7,0-3.5,0.1-5.3c0.1-1.4,0.3-2.9,0.3-4.3c-0.4-6.4-0.6-12.8,0.2-19.2c0.2-1.9,0-3.9-0.4-5.7c-0.7-3.7-0.3-7.3,0.1-11
		c0.4-3.3,0.7-6.7,1-10c0.1-1.1,0-2.2,0.1-3.4c0.3-6.6,0.5-13.1,0.9-19.7c0.2-2.4,0.5-4.8,1.1-7.1c1-4.4,2.1-8.7,3.2-13.1
		c0.5-1.9,1.3-3.6,2.8-5.5c0.7,0.9,1.5,1.5,1.7,2.2c1,4.1,1.5,8.1,0.7,12.4c-1,5.4-1.4,10.8-1.9,16.3
		C1444.4,603.6,1443.5,615.3,1442.4,627z M1446.8,712.3c0.2-8.3-0.7-16.6,0.5-25.1c0.5,0.5,0.8,0.7,0.9,0.9c0.6,3,1.1,6,1.6,9
		c0.3,1.6,0.2,3.4,1,4.7c2,3.6,0.8,6.8-0.9,10c-0.5,0.9-1.2,1.8-2.2,3.1C1447.2,713.7,1446.8,713,1446.8,712.3z M1458.1,730.5
		c-1.8,7-3,14.1-4.4,21.2c-0.3,1.5-0.2,3.2-1.6,4.8c-0.6-0.8-1.2-1.3-1.4-2c-0.9-3.4-1.7-6.8-2.5-10.3c-0.1-0.5-0.2-1,0-1.4
		c3.1-7,2.1-14.9,5.1-21.9c0.9-2.1,1.6-4.2,2.3-6.3c0.8-2.3,1.5-4.6,2.3-6.8c0.7-2,1.3-4,2.2-5.9c1.5-3.2,3.2-6.3,4.7-9.5
		c4.6-9.5,10.8-17.8,18.3-25.3c2.4-2.4,4.8-4.6,7.3-7c3.8,1.1,4.7,3.4,4.9,6.1c0.1,2.6-0.5,5.2-2.2,7.2c-3,3.6-6,7.2-9.3,10.5
		c-6.2,6.2-12.1,12.5-16.3,20.3c-1.4,2.7-2.8,5.4-3.8,8.3C1461.6,718.5,1459.6,724.4,1458.1,730.5z M1553.9,628.4
		c-0.3,2.7-2,4.7-4,6.4c-4,3.5-8,7-12.1,10.4c-2.8,2.4-5.6,4.8-8.6,7.1c-8.4,6.6-11.1,15.5-10.4,25.7c0.3,4.5,0.1,9-1.1,13.4
		c-0.3,1.1-0.6,2.2-1.1,3.2c-1.2,2.9-3.3,4.4-6.6,4.7c-11.5,1-20,6.8-25.3,17c-1,1.9-1.3,4.3-1.8,6.5c-0.5,2-0.8,4.1-1.3,6.1
		c-0.7,2.7-2.5,4.2-5.2,4.2c-4,0.1-8,0-11.9,0c-0.4-1-0.6-1.1-0.6-1.2c2.6-10.1,4.6-20.2,11-29c4-5.5,8.6-10.3,13.3-15.2
		c3.3-3.5,6.4-7.2,9.4-11c1.3-1.6,2.2-3.6,2.8-5.5c2.5-7.8-0.8-14.3-8.9-17.9c-3.3,0.8-6.2,2.5-8.5,5.1c-2.4,2.6-5,5-7.4,7.7
		c-6.8,7.6-12.6,15.9-16.9,25.2c-0.5,1-1.1,1.9-1.9,3.3c-0.6-1-1.2-1.6-1.3-2.2c-1.8-6.2-2.5-12.6-1.9-19.1c0.3-3.2,1.7-5.1,4.8-6.6
		c9.2-4.3,14.5-11.7,15.1-21.8c0.4-7.6,3.2-14.3,5.9-21.2c0.2-0.6,0.7-1,1.1-1.7c3-0.6,5.3,0.8,7.6,2.2c3.2,1.9,6.4,3.7,9.7,5.4
		c5.7,2.7,11.3,2,16.8-0.6c1.6-0.8,3.1-1.7,4.5-2.8c4.6-3.3,9.8-5.6,15.1-7.7c1.3-0.5,2.6-1.3,4-1.8c3.9-1.6,7.6-1.2,11,1.3
		C1552.9,620.5,1554.4,624.1,1553.9,628.4z"/>
	<path id="XMLID_708_" class="st0" d="M1756.8,692.6c4.1-6.9,7.9-13.3,11.8-19.9c2.9-5,6-9.9,8.7-15c1.1-2.2,2.4-4,4.5-5.1
		c1.1-0.6,2.1-1.4,3.1-2c4.7-3.1,9.8-5.1,15.3-6.2c6.2-1.3,11.1,6,9.2,10.4c-1,2.3-1.8,4.6-3.5,6.5c-3.4,4-6.9,7.9-11.5,10.5
		c-0.6,0.3-1.2,0.8-1.5,1.3c-1.3,2.2-3.2,3.2-5.7,3.7c-1.2,0.2-2.3,0.9-3.4,1.4c-5.2,2.6-10.4,5.1-15.6,7.8
		C1764.4,688,1760.8,690.3,1756.8,692.6L1756.8,692.6z M1726,666.7c1.9-9.4,3.7-18.9,5.8-28.3c1.8-8,4.7-15.5,9.7-22.1
		c1.9-2.6,4.3-4.1,7.3-5.1c1.6-0.5,3.1-0.3,4.2,1c1.1,1.3,2.4,2.8,2.9,4.4c0.7,2.5,1,5.1,0.9,7.7c-0.1,4.2-0.2,8.5-1.1,12.7
		c-0.6,2.4-1.4,4.4-3,6.1c-4.6,5-8.5,10.5-12,16.2c-0.6,1-1,2.2-1.5,3.4c-1.4,3.3-2.8,6.6-4.2,9.8c-2,4.8-4.6,9.4-5.2,14.7
		c-0.1,0.6-0.6,1.1-1,1.8C1723.9,680.2,1725.4,669.7,1726,666.7L1726,666.7z M1801.3,681c0.2,2.3-0.5,4.2-2.1,6
		c-6.4,7-13.9,12.6-22.5,16.6c-7.5,3.5-15,7.1-22.5,10.7c-1.3,0.6-2.5,1.2-2.9,3.3c0.5,0.8,1.3,1.8,2,2.9c1.2-0.2,2-0.3,2.7-0.6
		c3.7-1.4,7.6-1.6,11.4-1.5c2.1,0,4.1,0.5,5.8,2.3c-0.2,0.7-0.2,1.6-0.7,2.2c-1.9,2.3-4.1,4.1-6.9,5.2c-2.2,0.9-4.5,1.5-6.8,2.1
		c-1.9,0.5-3.8,0.2-5.4-1.2c-1.3-1.1-2.7-1.9-4.1-2.9c-5.8-3.9-12.3-6.3-18.8-8.7c-2.3-0.9-4.8-1.3-7.2-2c-2.6-0.8-5.5-0.6-8.2-2.5
		c-0.3-1.3-0.6-2.7-0.9-4.2c-0.9-4.6-1.8-9.2-2.8-13.7c-0.7-3.1-1.4-6.2-2.1-9.2c-0.5-2.3-0.7-4.6-1.3-6.9c-2.1-8-0.1-15.3,3.8-22.2
		c0.4-0.8,1.3-1.3,1.8-1.9c2.2,0.4,2.7,1.9,3.1,3.3c0.9,3.6,1.8,7.2,2.4,10.8c0.7,4.1,0.5,8.3,1.6,12.3c1.9,7.1,3.1,14.2,2.9,21.6
		c0,1,0.2,2.1,0.4,3.5c1.5,0,2.6-0.1,3.7-0.1c0.4-0.8,0.7-1.2,1-1.7c2.6-5.5,4.4-11.3,5.8-17.2c0.5-2.1,1.3-4.2,2.2-6.2
		c2.1-5,4.2-9.9,6.3-14.8c1.4-3.4,2.8-6.9,5.2-9.8c2.3-2.9,4.7-5.8,7-8.7c2.9-3.6,6.6-6.3,10.3-8.9c1.8-1.2,4-2,6-2.7
		c1.6-0.6,3.3-0.6,4.9,0.7c0.1,0.5,0.2,1.2,0.2,1.9c-0.3,2.9-0.8,5.7-1,8.6c-0.3,3.8-1.5,7.2-3.6,10.4c-1.5,2.3-3.1,4.6-4.4,7
		c-4.5,8.2-9,16.5-14.6,24c-3.5,4.6-5.7,10.1-9.8,14.3c-0.6,0.6-0.9,1.7-1,2.6c-0.2,2.5,1.9,3.9,4.1,2.7c1.7-0.9,3.2-2.2,4.7-3.4
		c4.4-3.6,8.7-7.3,13.2-10.7c1.8-1.4,3.9-2.6,6-3.6c6.1-3,12.3-5.8,18.4-8.7C1791.7,680.5,1797.3,680,1801.3,681L1801.3,681z
		 M1640.2,838.6c0.5-2.6,1.1-5.1,1.6-7.7c2.2-11.1,4.3-22.2,6.6-33.2c1.1-5.5,2.5-11,3.7-16.2c0.6-0.3,0.8-0.5,1.1-0.5
		c0.5-0.1,1.1-0.2,1.6-0.2c8.7,0.2,16.9,2.8,24.9,6.1c5.6,2.3,10.8,5.5,16.7,7.5c1.3,0.4,2.5,1.2,3.4,2.2c1.7,1.7,3.5,2,5.6,1.2
		c0.9-4,0.4-5.2-2.8-6.9c-0.6-0.3-1.2-0.7-1.9-0.9c-6.5-1.7-12.1-5.4-18.3-7.8c-8.1-3.2-16.1-6.7-25.1-6.6c-1.1,0-2.3,0.1-3-1.4
		c0.6-3.1,0.8-6.6,3.7-9.1c0.6-0.5,1.3-1.3,1.4-2c0.4-3.2,2.5-5.8,3.1-8.9c0.6-2.8,2.1-5.1,3.5-7.4c1.2-2,2.6-3.9,3.7-6
		c3.7-7.4,9.7-12.6,16-17.7c2.7-2.2,5.9-3.6,9.4-3.9c3.5-0.3,6.9-0.8,10.4-0.7c7.9,0.1,15.7,1.3,23.2,4.3c5.3,2.1,10.8,3.6,15.8,6.4
		c5.4,3,10,7,13.6,11.9c2.8,3.9,5.1,8.1,6.8,12.7c2.3,6.3,2.3,12.4,0.3,18.6c-1.9,5.9-3.8,11.8-6,17.6c-2.2,5.6-4.4,11.3-7.2,16.7
		c-2.9,5.5-6.4,10.6-9.9,15.8c-3.1,4.7-6.5,9.2-9.8,13.8c-2.2,3.1-4.5,6.3-6.7,9.5c-1,1.4-1.9,2.8-2.9,4.2c2,0.3,4,0.6,6,1
		c2.3-3.4,4.8-6.7,7.1-10.1c4.3-6.1,8.8-12,12.9-18.2c5.8-8.7,10.8-18,14.5-27.8c2.6-7.1,5.1-14.3,7.5-21.4c1.9-5.6,2-11.3,0.2-17
		c-1.8-5.8-4.2-11.4-7.8-16.3c-0.8-1.1-1.3-2.3-1.9-3.5c1.7-2.1,4-2.5,6.1-3.1c3.7-1.2,6.6-3.4,9-6.3c0.3-0.4,0.7-0.9,0.9-1.3
		c2.6-4.8,1.1-9.3-4-11.5c-1.1-0.5-2.3-0.8-4-1.3c0.7-0.6,1.1-1,1.6-1.3c5.7-3,11.7-5.8,17.2-9.1c4-2.4,7.6-5.5,11.3-8.4
		c2.3-1.8,4-4.2,5.3-6.8c0.7-1.5,1.3-3,1.6-4.6c0.6-3.5-0.4-5.2-3.6-7c-0.4-0.2-0.7-0.5-1.2-0.9c0.4-0.7,0.7-1.4,1.2-2
		c2.2-2.5,4.5-4.9,6.7-7.4c3.6-4.1,5.1-9.2,5.3-14.5c0.1-4.1-2.2-7.5-5.4-9.8c-3.4-2.5-7.5-3.5-11.8-2.1c-4.4,1.3-8.7,2.7-12.7,5
		c-1.1,0.6-2.2,1.1-3.5,1.7c-1-1.7-0.5-3.3-0.1-4.9c0.6-2,0.3-3.8-0.2-5.7c-0.6-2-1.9-3.2-4-3.7c-4-1-7.7-0.2-11.3,1.5
		c-1.1,0.5-2.2,1.1-3.7,1.8c-0.3-1.1-0.7-2-0.7-2.8c0-2.8,0-5.5,0.1-8.3c0.2-3.5-0.7-6.8-1.5-10.2c-0.7-2.9-2.5-5.1-5.1-6.8
		c-2.7-1.8-5.4-1.8-8.3-0.8c-6.2,2.1-10,6.6-13,12.1c-5.7,10.3-8.3,21.5-9.9,33c-0.2,1.6-0.1,3.3-1.6,5c-0.9-1.4-1.7-2.7-2.6-3.9
		c-1.1-1.6-2.4-3-4.2-3.8c-2.3-1-4.1-0.8-5.4,1.4c-3.6,5.7-6.6,11.8-7.4,18.6c-0.7,5.7,0.6,11.2,1.8,16.7c1.5,7.4,3.2,14.8,4.7,22.2
		c0.3,1.7,0.2,3.5,0.3,5.3c-3.3,1-6.4,0.8-9.4,0.7c-4.7-0.2-9.1,0.9-13.3,2.8c-2.7,1.3-5.1,3.2-7.4,5.2
		c-6.5,5.5-11.8,11.9-15.7,19.5c-1.8,3.6-3.9,7-5.8,10.5l-0.4,0.7c-2.9,2.1-3.7,5.4-4.5,8.6c-2.7,10-5.2,20-7.8,30
		c-1.2,4.5-2.2,9.1-3.3,13.6c-0.3,1.3-0.7,2.7-0.9,4c-2,10-4,20-6,30C1636.5,838.2,1638.4,838.4,1640.2,838.6L1640.2,838.6z"/>
	<path id="XMLID_704_" class="st0" d="M1122.5,693.6c-1-2-2.1-3.5-2.6-5.2c-1.8-5.6-3.1-11.2-3.5-17c-0.3-4.6-1-9.2-1.5-14.1
		c-2,0.1-3.8,0.1-5.5,0.3c-3.5,0.4-5-0.5-6.4-4c0.9-1.3,2.4-1.4,3.8-1.4c1.6,0,3.1-0.1,4.7-0.2c1.2-0.1,2-0.8,2.2-1.9
		c0.4-1.7,0.4-3.4-0.6-4.9c-4.4-6.4-14.2-6.1-17.7-0.5c-1.4,2.3-2.3,4.7-2.6,7.3c-1,8,0.4,15.8,3.7,23.1c2.4,5.4,5.5,10.5,10.3,14.4
		c0.7,0.6,1.3,1.3,1.3,1.4c-0.3,3.3-1.6,4.7-3.8,5.4c-0.6,0.2-1.2,0.5-1.8,0.8c-4,2.1-6,5.4-6.5,9.9c-0.5,5.1-0.1,10,0.6,15
		c1,6.8,0.1,13.4-2.8,19.7c-0.4,0.9-0.7,1.8-1.3,3.3c3.6-0.7,6.5-1.7,8.9-3.7c4.4-3.8,8.1-8.1,8.8-14.2c0.3-2.3,1.4-3.8,3.6-4.6
		c1.7,0.1,2.6,1,3.2,2.4c1.6,3.2,3.2,6.5,5,9.6c2.7,4.7,6.3,8.5,10.9,11.5c2.7,1.7,5.7,3,9.3,3.8c-1-8.5-3.7-16.1-6-23.9
		c1.1-1,2-1.8,2.9-2.6c3,1.5,5.8,3,8.6,4.2c2.9,1.2,5.8,2.5,8.8,3.2c2.9,0.6,5.6,2.5,9.2,1.6c-0.7-1-1.2-1.7-1.8-2.4
		c-4-4.2-6.8-9.1-8.9-14.4c-0.6-1.6-1.2-3.2-2-4.7c-1.3-2.4-2.4-5-4.2-6.9c-6-6.1-13.2-10-22.1-10
		C1125.3,694,1124,693.8,1122.5,693.6L1122.5,693.6z M1300.9,829.5c-2.6-7.2-6.5-13.4-11.9-18.8c-6.3-6.3-13.5-11.3-21.1-16
		c-0.7-0.4-1.3-0.8-2.1-1.1c-8.9-3.2-17.8-6.6-27.1-8.5c-6.1-1.2-12.2-2.5-18.3-3.9c-2.9-0.7-5.9-1.3-8.6-2.5
		c-7.2-3.3-14.6-6.2-22.1-8.9c-7.8-2.8-14.4-7.2-19.6-13.6c-4.1-5-7.1-10.8-10.3-16.4c-0.8-1.4-1.4-2.7-3.1-3.3
		c-2.8-1-5.6-2.2-8.4-3.2c-1.2-0.4-2.3-1.2-3.9-0.6c0.1,0.7,0.1,1.5,0.2,2.2c1,4.5,2,9.1,3,13.6c0.3,1.4,0.6,2.8,0.8,4.2
		c0.7,3.8-1.3,5.5-4.8,4.2c-2-0.7-3.9-1.5-5.8-2.4c-8.6-3.8-16-9.1-20.6-17.6c-0.7-1.2-1.4-2.4-2.9-2.9c-1.6,1.9-3,3.7-4.5,5.5
		c-1.6,1.8-3.3,3.6-5.4,5.7c0.7,1.4,0.3,2.5-0.3,3.7c-0.7,1.2-1,2.7-1.2,4.1c-0.9,8.9-1.5,17.8-1.1,26.7c0.5,9.1,1.4,18.3,2.7,27.4
		c0.6,4.8,2.2,9.6,3.4,14.3c0.8,2.9,1.8,5.7,2.6,8.5c0.6,1.9,1,3.7,1.5,5.6c1.2,4.5,3.2,8.7,5.3,12.9c-1.9,0.3-3.9,0.6-5.8,0.9
		c-1-2.1-2-4.3-2.9-6.4c-0.9-2-1.5-4.1-2-6.3c-1.1-5.3-2.8-10.5-4.6-15.6c-1.4-4.1-2.3-8.5-2.9-12.8c-1-6.6-1.5-13.4-2.2-20
		c-0.2-1.4-0.4-2.8-0.5-4.2c-0.1-3-0.2-5.9-0.2-8.9c0-0.5,0.1-1,0.1-1.5c-0.6-7.6,0.6-15.2,1.3-22.8c0-0.4-0.1-0.8-0.1-1.4
		c-2.4-0.4-4.5,0.8-6.8,0.9c-2.2,0.1-4.4,0.3-6.9,0.5c-0.5-1-1-2.1-1.6-3.3c3.1-2.3,5.2-5.1,6.5-8.4c2.4-6,3.3-12.2,2.1-18.6
		c-1.2-5.9-1.3-11.8-0.3-17.7c0.6-3.8,3.1-6.5,6-8.8c1.2-0.9,2.4-1.9,3.8-3c-0.8-1.2-1.4-2.2-2-3.1c-4.3-6.1-8.2-12.3-9.4-19.8
		c-0.1-0.8-0.5-1.5-0.7-2.2c-2-5.7-1.9-11.5-0.8-17.2c1.1-5.3,3.6-9.8,8.9-12c7.8-3.2,16.9-2,21.7,5.8c0.8,1.3,1.3,2.8,1.7,4.3
		c0.8,3.8,1.3,7.6,0.6,11.5c-0.3,2.1,0.1,4.4,0.4,6.6c1,6.3,2,12.5,3.1,18.7c0.3,1.5,1,2.9,1.7,4.6c1.8,0.2,3,0.3,4.3,0.4
		c9.8,0.7,21.2,7.8,26,16.5c1.1,2,1.9,4.2,2.7,6.4c2.2,5.9,5.5,11.2,9.7,15.8c1.6,1.8,3.9,3,5.8,4.5c1.8,1.3,1.8,1.3,1.5,4.4
		c-2.8,2.3-6.5,2-10.1,2.6c0.1,0.6,0.1,1.2,0.3,1.6c3.4,6.9,7.5,13.4,13.6,18.2c2.2,1.8,4.7,3.3,7.3,4.4c8.9,3.9,18,7.6,27,11.2
		c2.3,0.9,4.7,1.4,7.2,1.9c7.9,1.6,15.9,3.1,23.7,4.9c4.4,1,8.7,2.5,13.1,4c7.3,2.4,14.1,5.9,20.5,10.3c5.2,3.6,10.2,7.5,14.7,12.1
		c6.1,6.3,10.5,13.3,13.2,21.6C1304.4,829.3,1302.6,829.4,1300.9,829.5L1300.9,829.5z"/>
	<path id="XMLID_703_" class="st1" d="M1298.4,829.7c-2.4-6.5-6.1-12.3-11.1-17.2c-6.1-6.1-13.3-11.1-20.6-15.6
		c-0.5-0.3-1.1-0.7-1.6-0.9c-8.8-3.2-17.6-6.5-26.8-8.4c-6.1-1.2-12.3-2.5-18.4-3.9c-3.1-0.7-6.2-1.3-9.1-2.6
		c-7.2-3.3-14.5-6.1-21.9-8.8c-8.2-2.9-15.1-7.6-20.6-14.3c-4.2-5.1-7.2-11-10.5-16.7c-0.4-0.7-0.9-1.9-1.8-2.2
		c-2.8-1-5.6-2.2-8.4-3.2c-0.1,0-0.2-0.1-0.4-0.1c0.9,4.2,1.9,8.5,2.8,12.7c0.3,1.4,0.6,2.8,0.9,4.3c1,5.5-2.6,8.8-8,6.8
		c-2-0.7-4-1.6-5.9-2.4c-9.2-4-16.9-9.7-21.7-18.6c-0.1-0.2-0.2-0.5-0.4-0.7c-1,1.3-2.1,2.5-3.1,3.7c-1.5,1.6-3,3.2-4.5,4.8
		c0.2,1.4-0.2,2.8-0.9,4.2c-0.5,1-0.8,2.1-0.9,3.2c-0.9,8.7-1.5,17.6-1.1,26.3c0.5,9.1,1.4,18.2,2.6,27.2c0.6,4.8,2.1,9.4,3.4,14
		c0.8,2.8,1.8,5.6,2.6,8.4c0.6,1.9,1.1,3.8,1.6,5.7c1.2,4.6,3.3,8.9,5.5,13.1C1179.2,839.5,1238.8,833.2,1298.4,829.7L1298.4,829.7z
		"/>
	<path id="XMLID_700_" d="M1660.8,1031.2c-38.5,96-133,163.9-243.4,163.9c-110.5,0-204.9-67.9-243.4-163.9c-1.2-2.9,0.3-6.1,3.1-7.3
		c2.9-1.1,6.2,0.3,7.3,3.1c36.9,91.9,127.3,156.9,233,156.9c105.7,0,196.1-65,233-156.9c1.1-2.9,4.4-4.3,7.3-3.1
		C1660.5,1025.1,1661.9,1028.3,1660.8,1031.2L1660.8,1031.2z"/>
	<path id="XMLID_699_" d="M1699.8,1030.5c-40,116.7-151.4,200.7-282.4,200.7c-131.1,0-242.4-84-282.4-200.7
		c-0.8-2.2,0.4-4.6,2.6-5.3c2.2-0.7,4.6,0.4,5.4,2.6c38.9,113.4,147.1,195,274.5,195c127.4,0,235.6-81.6,274.5-195
		c0.7-2.2,3.1-3.4,5.3-2.6C1699.3,1025.9,1700.5,1028.3,1699.8,1030.5L1699.8,1030.5z"/>
	<g id="XMLID_861_">
		<path id="XMLID_868_" d="M1254.7,902.6l-0.1-1c-0.5-9.2-6.3-13.5-17.3-12.9l-1.6,0.1l-1-0.4l0,0.5l-1.1-0.4l-5.1,0.3l0,0.5
			c2.2,2.6,3.4,4.7,3.5,6.5c-0.9,2.5-1.8,7.2-2.8,14.1l0.5,0c-0.2,1.4-0.5,2.1-0.9,2.1c0,0.3,0.2,0.5,0.5,0.5c0,0.6-0.2,2-0.8,4.2
			l0.5,0l-0.9,2.6c0.3,0,0.5,0.1,0.5,0.5c-0.3,0-0.5,0.2-0.5,0.5l0.5,0l-0.9,10.3l0.5,0c-0.5,2.5-0.6,6.4-0.3,11.8
			c3.1-2.9,5.6-4.4,7.5-4.5l0-0.5l-0.6-1c1.1-0.5,3.2-2.6,6.4-6.5c0,0.3,0.2,0.5,0.5,0.5c0.6-1.7,1.8-3.5,3.8-5.3
			c0-0.6,1.4-2.9,4.2-6.9c2.3-4.9,4-9.6,4.9-14.2l-0.5,0L1254.7,902.6z"/>
		<path id="XMLID_871_" d="M1529.2,914.5l0-1c0-0.3,0.2-0.5,0.5-0.5l-0.5-1l0.5-12.3l-1,0c-1.7,4-6.6,13.6-14.6,28.8
			c0,0.3,0.1,0.5,0.5,0.5l14.5-4.3l0.5,0l0.1-1.5l-0.3-4.9l0.5,0C1529.4,917.2,1529.2,915.9,1529.2,914.5z"/>
		<path id="XMLID_883_" d="M1817.8,872.9c-6.7-1.4-13.5-2.7-20.3-4.1c-251.1-48.9-509.4-48.9-760.5,0c-6.8,1.3-13.5,2.7-20.3,4.1
			c4.8,4.9,9.5,9.8,14.2,14.7c14.8,15.4,29.3,30.9,43.5,46.6c-7.7,19.7-15,39.4-22.1,59.1c-2.2,6.3-4.4,12.6-6.6,18.9
			c6.3-1.3,12.6-2.6,19-3.8c29.7-5.8,59.6-10.8,89.6-15.1c186.5-26.8,377.1-24.9,563.1,5.7c17.5,2.9,34.9,6,52.3,9.4
			c6.3,1.2,12.7,2.5,19,3.8c-2.2-6.3-4.4-12.6-6.6-18.9c-7-19.7-14.4-39.4-22.1-59.1c14.2-15.7,28.7-31.2,43.5-46.6
			C1808.3,882.6,1813,877.7,1817.8,872.9z M1171.7,934.9c0.3,0,0.5,0.1,0.5,0.4c-0.9,0.1-1.9,1.2-3.2,3.3c0.8,1.4,1.3,3.5,1.6,6.3
			c-0.6,0.9-0.9,1.6-0.8,2.1l-1,0.1c-2.1,0.2-4.2-0.8-6.2-2.9l-1,0.1c-10.5,6.2-16.6,9.4-18.5,9.6l-1.1-0.4
			c-0.6,0.4-1.1,0.6-1.4,0.6l-2-0.8c-0.6,7.6-1.7,11.5-3.4,11.7c-0.5,0-1.1,0.4-1.9,1.1l-0.5,0c-3.9-2.4-5.9-4.9-6.1-7.3l-0.1-1.5
			c-0.2-2.5,0.4-6.3,1.9-11.5l-0.5,0c1.4-3.3,3.3-9.4,5.7-18.3c0.7-0.1,1-0.4,0.9-1.1c-0.3,0-0.5-0.1-0.6-0.5
			c2-3.7,4.1-9.4,6.3-17.3c1-3.4,1.4-5.4,1.4-6l-0.5,0c3.9-8.6,6.1-14.6,6.7-17.9l1.9-1.1c0.6,0.3,1.3,0.3,2,0.3l0-0.5l1,0.4l1-0.1
			c0.1-1.6,0.5-2.5,1.3-2.6l2.4-0.2c2.7-0.3,5.1,2.8,7.3,9.2l-0.7,3.5l0.5,0c-0.6,4.8-0.4,11.4,0.4,19.7l1.3,14.2l0.6,0.9l0.9-0.6
			c1-0.1,2.5,0.6,4.6,2l-0.2,2.5l0.6,1C1172.6,933.3,1172.2,933.8,1171.7,934.9z M1258.7,926.1c-7.7,11.5-13.1,17.7-16,18.4
			c0.1,1.1-1.9,3-5.9,5.5c-2.1,2.7-6.1,5.9-11.9,9.4c0-0.3-0.2-0.5-0.5-0.5c0.1,1.4-3.6,3.6-11,6.8l-1.5,0.1
			c-0.9,1.4-5.2,3-12.7,4.9l0-0.5l-1,0.6c-2.9-0.5-6.2-1.4-10-2.5l0.4-1c-2.5,0.1-4.4-3-5.7-9.4l0-0.5c0.6-2,1.7-3.4,3.4-4.3
			c0.3,4.4,1.4,6.6,3.5,6.5l2.6,0.3c8.1-0.5,17.3-4.6,27.8-12.4c-1.6-3-2.4-6.2-2.7-9.6l-0.4-6.7c-0.4-5.9-0.3-10.6,0.2-13.9l-0.5,0
			c0.5-2.4,0.8-5.2,1.1-8.3l-0.5,0c0.9-8,2.3-13.9,4.1-17.7l0-0.5l-0.5,0c-2.3,0.1-5.2,1.5-8.5,4.1c0.4,1.7,0.8,2.5,1.2,2.5
			c-0.5,2.8-1.1,4.2-1.8,4.2l-1,0.1c-2.3,0.1-5-1.4-8.1-4.7l0.9-2.1l-0.5,0l0.5-1l-0.6-1c2.9-5.7,5.4-8.5,7.3-8.6
			c3.2-2.5,7.8-4.5,13.6-5.9l0,0.5l1-0.6l9.8-0.6c11.3-0.7,20.4,4.3,27.3,14.9c1.6,3.9,2.7,7.8,3.3,11.6
			C1265.1,910.8,1262.9,918.2,1258.7,926.1z M1309.8,932.4c-7,4.6-13.7,7.1-19.8,7.3l-4.7,0.2c-6.5,0.3-10.9-2.5-13-8.3
			c-0.4-1.7-0.6-3-0.6-4.2c-0.3-8.3,4.6-14.5,14.7-18.7l6.9-3.5c0,0.3,0.2,0.5,0.5,0.4c-0.1-1.2,4-2.2,12.1-2.8l0.9,0
			c6.9-0.3,11.3,2.7,13,8.8c0,1.2,0.4,2.1,1,2.7l-0.4,1c0.3,0.5,0.5,1.1,0.5,1.8C1319.3,923.9,1315.6,929.1,1309.8,932.4z
			 M1372.9,933.6c-10.1,4.5-17.7,6.8-22.8,6.9l-2.3,0c-3.3,0.1-5.6-1.6-7-4.9l0-1.8c0-0.3,0.1-0.4,0.5-0.4l-1.4-2.3
			c0.9,0,1.4-0.5,1.3-1.4c-0.3,0-0.5-0.1-0.5-0.4c5.5-0.1,11.9-1.5,19.2-4.1l0-0.9c-4.6-0.5-6.9-0.9-6.9-1.3c-0.3,0-0.4,0.2-0.4,0.5
			c-11.6-1.9-18.9-4.5-21.8-7.8c-1.2,0-2.6-3.1-4.3-9.5c-0.2-7.8,6.3-14.2,19.3-19.1c8.4-4,16.8-7,25.1-8.7c2.4,0,4.5,2.2,6.1,6.7
			l0.5,0l-0.4,0.9l0.1,4.1c-1.7,1-4,1.9-6.8,2.4l0-0.5c-13.4,4.1-22.9,8.3-28.7,12.5c-2.4,1.8-3.6,3.1-3.6,3.7
			c2.4,1.2,11.4,2.8,26.8,4.9c6.9,2.2,11.4,5.5,13.5,9.8c0,0.8,0.3,1.5,1,2.3l0,1.4C1379.2,930,1377.1,932.3,1372.9,933.6z
			 M1490.4,937.4c-0.1,4.7-2.3,7.2-6.5,7.5c-2.4-1.3-3.6-3.2-3.8-5.8l-0.3-3.8l-0.7-1.1c0.7-0.1,1-0.4,1-1l0-0.2
			c-0.5-1.3-0.7-2-0.7-2.1l0-0.5l0.6,0l0.1,1.1l0.5-0.1l0-0.5c-0.5-0.7-0.7-1.2-0.7-1.6l7.8-33.3l0-0.5l-0.5,0
			c-8.1,18.8-15.3,32.3-21.7,40.5l-2.1,1.9l-1.7,0.2c-0.1,0-0.3,0-0.4,0c-2.5-0.1-4.8-2.3-6.8-6.7c0.1-1,0.2-1.8,0.2-2.6
			c0-0.5,0-0.9,0-1.3l0.5,0l0.1,1.1l0.5-0.1l-0.8-2.7l-0.1-1.1l0.5-0.1l0.1,1.1l0.5,0l-0.1-0.5l-0.8-3.3l1.1-0.1l-0.8-2.7l-0.1-0.5
			l1.2,0.5c0.3-5.7,0.4-10.3,0.5-13.8c0.1-3.5,0.1-5.9-0.1-7.2c-0.9-6.8-1.9-10.2-3.1-10.3h0c-7.2,0.6-13.3,16.4-18.3,47.4l0.8,2.7
			c-0.7,3-2.3,4.6-4.6,4.8l-1.1,0.1c-3.8-1.6-6-5.3-6.5-11.1l0-0.9c0.2-9.8,4.5-24.1,13-42.7c4.1-6.6,8.8-10.2,14.2-10.6
			c0.4,0,0.9-0.1,1.3-0.1c7.4,0.2,12.1,6.9,14.3,20.3c0.1,1.4,0.1,6,0.1,13.8c1.7-1.9,5.8-8.7,12.2-20.4c4.5-6.3,8.2-9.5,10.9-9.7
			l1.1,0c3.1,1.1,4.8,4.2,5.3,9.4l0.2,2.8c0.1,1.1,0.1,2.3,0.1,3.7c-0.2,7.9-2.3,20.7-6.5,38.3
			C1490.4,936.2,1490.4,936.8,1490.4,937.4z M1545,927.5c-0.5,0-1,0.5-1.5,1.4c0.3,0,0.5,0.2,0.5,0.5c-0.9,0-2.1,0.9-3.6,2.8
			c0.6,1.5,0.9,3.6,0.7,6.4c-0.7,0.8-1.1,1.4-1.1,1.9l-1,0c-2.1-0.1-4-1.3-5.8-3.7l-1,0c-11.2,4.7-17.8,7.1-19.6,7l-1-0.5
			c-0.6,0.3-1.1,0.5-1.5,0.4l-1.9-1.1c-1.7,7.5-3.3,11.2-4.9,11.1c-0.5,0-1.2,0.3-2,0.9l-0.5,0c-3.5-2.9-5.2-5.6-5.1-8.1l0.1-1.5
			c0.1-2.5,1.3-6.2,3.5-11.1l-0.5,0c1.8-3.1,4.5-8.9,8.2-17.3c0.7,0,1-0.3,1.1-0.9c-0.3,0-0.5-0.2-0.5-0.5c2.5-3.3,5.3-8.8,8.7-16.3
			c1.4-3.2,2.2-5.1,2.2-5.8l-0.5,0c5-8,8.1-13.6,9.1-16.8l2-0.9c0.6,0.3,1.2,0.5,1.9,0.5l0-0.5l1,0.5l1,0c0.3-1.6,0.8-2.4,1.6-2.4
			l2.4,0.1c2.7,0.1,4.7,3.5,6,10.1l-1.1,3.4l0.5,0c-1.2,4.7-2,11.2-2.4,19.5l-0.6,14.2l0.5,1l1-0.4c1,0,2.4,0.9,4.3,2.6l-0.6,2.4
			L1545,927.5z M1576.3,943.5l-0.6,0c-7.8-4.5-11.6-8.6-11.5-12.5l-0.6,0c-2.3,7.6-4.3,11.4-6.2,11.6l-0.6,0l-0.1,0
			c-0.3,0-0.5-0.2-0.5-0.6l-1.2,0.6c-4.7-1.7-7-5.4-6.8-11.3l0-1.7c0.9,0,1.9-1.3,3-4.1c0-0.4-0.2-0.6-0.5-0.6l-0.1,0
			c1.6-3.1,3.9-9.9,6.9-20.3c0.7,0,1.7-0.5,3-1.7l0.1,0c0.3,0,0.5,0.2,0.5,0.6l1.2-0.6c4.2,3,7.1,7.9,8.6,14.8
			c1.6,7,3.1,10.5,4.4,10.6h0c2,0.1,4-5.2,6.2-15.7l0-1.7c0-0.4-0.2-0.6-0.6-0.6l0.6-2.9l0.1-4.1c1.2-1.2,1.8-2.2,1.8-2.8v0l2.9,0
			l0.2,0c3.3,0.2,5.7,2.9,7.3,8.3C1591.8,932.1,1585.9,943.7,1576.3,943.5z M1648.1,925.7c-2.4,6.7-6.6,11.4-12.7,14.1
			c-7.5,3.8-14.4,5.6-20.5,5.1l-4.7-0.3c-6.5-0.4-10.5-3.7-12-9.7c-0.2-1.7-0.3-3.1-0.2-4.2c0.6-8.2,6.1-13.9,16.6-17l7.2-2.8
			c0,0.3,0.1,0.5,0.4,0.5c0.1-1.2,4.2-1.7,12.3-1.5l0.9,0.1c6.9,0.5,10.9,3.8,12,10.1c-0.1,1.2,0.2,2.1,0.7,2.8l-0.5,0.9
			C1648,924.3,1648.1,925,1648.1,925.7z M1707.4,901.1l-0.4,4.1c-1.8,0.8-4.2,1.4-7.1,1.6l0-0.5c-13.7,2.6-23.7,5.7-29.9,9.2
			c-2.6,1.6-4,2.6-4,3.3c2.3,1.4,11,4.1,26.1,7.9c6.6,3,10.7,6.7,12.3,11.2c-0.1,0.8,0.2,1.6,0.7,2.4l-0.1,1.4
			c-0.3,3.3-2.7,5.4-7,6.2c-10.6,3.3-18.4,4.7-23.5,4.3l-2.3-0.2c-3.3-0.3-5.4-2.2-6.4-5.6l0.2-1.8c0-0.3,0.2-0.4,0.5-0.4l-1.2-2.4
			c0.9,0.1,1.4-0.3,1.5-1.3c-0.3,0-0.5-0.2-0.4-0.5c5.4,0.5,12-0.1,19.6-1.9l0.1-0.9c-4.5-1-6.8-1.7-6.8-2c-0.3,0-0.4,0.1-0.5,0.4
			c-11.3-3.2-18.2-6.6-20.8-10.2c-1.2-0.1-2.2-3.4-3.2-9.9c0.7-7.8,7.9-13.4,21.4-16.8c8.8-3.1,17.5-5,25.9-5.9
			c2.4,0.2,4.2,2.7,5.3,7.4l0.5,0L1707.4,901.1z"/>
		<path id="XMLID_1174_" d="M1302.6,915.9c-0.9,0.7-4,1.7-9.2,3.2c0,0.3-0.9,0.8-2.8,1.5c0-0.3-0.2-0.5-0.5-0.4l-8.2,5.9l0,0.9
			l5.1-0.2c1.6-0.1,3.9-0.3,7-0.7c0-0.8,2.3-1.7,6.9-2.6c4.5-1.8,7.7-4.1,9.6-6.9c-0.8-0.6-1.3-0.9-1.5-0.9L1302.6,915.9z"/>
		<polygon id="XMLID_1175_" points="1229.8,943.2 1230.3,943.2 1230.7,942.1 1230.2,942.1 		"/>
		<path id="XMLID_1176_" d="M1156.6,926.4l0.5,0c-0.8-1.1-1.2-2.4-1.4-3.8l-0.1-1c0-0.3,0.1-0.5,0.5-0.6l-0.6-0.9l-1.2-12.2l-1,0.1
			c-1.2,4.2-4.7,14.4-10.5,30.5c0,0.3,0.2,0.5,0.6,0.5l13.8-6.2l0.5,0l-0.1-1.5L1156.6,926.4z"/>
		<path id="XMLID_1177_" d="M1630,922.6c-1,0.6-4.2,1.3-9.5,2.2c0,0.3-1,0.7-2.9,1.2c0-0.3-0.1-0.5-0.4-0.5l-8.8,5l-0.1,0.9l5.1,0.3
			c1.6,0.1,3.9,0.1,7,0c0.1-0.8,2.4-1.4,7.2-1.8c4.7-1.3,8.1-3.3,10.2-5.8c-0.7-0.7-1.2-1-1.3-1L1630,922.6z"/>
		
			<rect id="XMLID_1178_" x="1207.1" y="967.4" transform="matrix(-6.169723e-002 -0.9981 0.9981 -6.169723e-002 315.8548 2232.708)" width="0.5" height="1.1"/>
	</g>
	<path id="XMLID_205_" d="M1308,1038.7c0,0.9-0.3,1.5-0.8,2c-0.5,0.5-1.1,0.7-1.8,0.7c-0.6,0-1.2-0.2-1.8-0.6
		c-0.5-0.4-0.8-1.1-0.8-2.1c0-0.2-0.1-0.5-0.3-0.9c-0.2-0.4-0.5-0.9-0.9-1.3c-0.4-0.4-0.9-0.8-1.6-1.2c-0.7-0.3-1.5-0.5-2.4-0.5
		c-0.9,0-1.7,0.2-2.5,0.7c-0.8,0.4-1.5,1.1-2.2,2c-0.6,0.9-1.1,2-1.5,3.4c-0.4,1.4-0.6,3-0.6,4.8c0,1.8,0.2,3.4,0.6,4.6
		c0.4,1.3,0.9,2.3,1.6,3.1c0.7,0.8,1.5,1.4,2.4,1.7c0.9,0.4,2,0.6,3.1,0.6c0.8,0,1.5-0.1,2.1-0.3c0.6-0.2,1.2-0.5,1.9-0.9
		c0.6-0.3,1.1-0.5,1.6-0.5c0.4,0,0.8,0.1,1.1,0.4c0.3,0.2,0.5,0.6,0.7,1c0.1,0.4,0.2,0.8,0.2,1.2c0,0.4-0.1,0.8-0.3,1.2
		c-0.2,0.4-0.5,0.7-0.8,0.9c-0.3,0.2-0.7,0.4-1.1,0.6c-0.4,0.2-0.9,0.4-1.4,0.6c-0.5,0.2-1.1,0.3-1.8,0.4c-0.7,0.1-1.5,0.2-2.5,0.2
		c-0.8,0-1.7-0.1-2.6-0.2c-0.9-0.1-1.8-0.4-2.8-0.8c-0.9-0.4-1.8-0.9-2.6-1.6c-0.8-0.7-1.6-1.6-2.2-2.7c-0.6-1.1-1.2-2.4-1.6-4
		c-0.4-1.6-0.6-3.4-0.6-5.5c0-2.7,0.3-5,1-7c0.7-2,1.6-3.6,2.7-4.9c1.1-1.3,2.4-2.3,3.9-2.9c1.5-0.6,3-0.9,4.5-0.9
		c1.3,0,2.5,0.2,3.7,0.7c1.2,0.5,2.3,1.1,3.2,1.9c0.9,0.8,1.7,1.7,2.3,2.8C1307.7,1036.4,1308,1037.5,1308,1038.7L1308,1038.7z
		 M1320.2,1060.5c-1.3,0-2.6-0.2-3.7-0.7c-1.1-0.5-2.1-1.2-2.9-2.1c-0.8-0.9-1.5-1.9-1.9-3.2s-0.7-2.6-0.7-4c0-1.5,0.2-2.8,0.7-4
		c0.5-1.2,1.1-2.3,1.9-3.2c0.8-0.9,1.8-1.6,2.9-2.1c1.1-0.5,2.4-0.7,3.7-0.7c1.3,0,2.6,0.2,3.7,0.7c1.1,0.5,2.1,1.2,2.9,2.1
		c0.8,0.9,1.5,2,1.9,3.2c0.5,1.2,0.7,2.6,0.7,4c0,1.5-0.2,2.8-0.7,4c-0.5,1.2-1.1,2.3-1.9,3.2c-0.8,0.9-1.8,1.6-2.9,2.1
		C1322.8,1060.2,1321.5,1060.5,1320.2,1060.5L1320.2,1060.5z M1320.2,1044.6c-0.7,0-1.4,0.2-2,0.5c-0.6,0.3-1.1,0.7-1.5,1.3
		c-0.4,0.5-0.7,1.2-1,1.9c-0.2,0.7-0.3,1.5-0.3,2.4c0,1.7,0.4,3.1,1.3,4.2c0.9,1,2,1.6,3.5,1.6c1.5,0,2.6-0.5,3.5-1.6
		c0.9-1,1.3-2.4,1.3-4.2c0-0.8-0.1-1.6-0.3-2.4c-0.2-0.7-0.6-1.4-1-1.9c-0.4-0.5-0.9-1-1.5-1.3
		C1321.6,1044.8,1320.9,1044.6,1320.2,1044.6L1320.2,1044.6z M1347.6,1046.4c-0.2,0-0.4,0-0.6-0.1c-0.2-0.1-0.4-0.1-0.5-0.2
		c-0.4-0.3-0.7-0.5-1-0.6c-0.3-0.2-0.6-0.3-0.9-0.4c-0.3-0.1-0.6-0.2-1-0.2c-0.3,0-0.8,0-1.3,0c-0.8,0-1.5,0.1-2.1,0.4
		c-0.6,0.3-1.1,0.7-1.5,1.2c-0.4,0.5-0.7,1.1-0.9,1.9c-0.2,0.7-0.3,1.5-0.3,2.3c0,0.7,0.1,1.3,0.4,2c0.3,0.7,0.6,1.2,1.1,1.8
		c0.5,0.5,1,0.9,1.6,1.3c0.6,0.3,1.3,0.5,2,0.5c0.6,0,1.1,0,1.6-0.1c0.5,0,1-0.2,1.5-0.3c0.1-0.1,0.3-0.1,0.4-0.1
		c0.2,0,0.4-0.1,0.5-0.1c0.5,0,1,0.2,1.5,0.6c0.5,0.4,0.7,0.9,0.7,1.6c0,0.7-0.2,1.3-0.8,1.6c-0.5,0.4-1.1,0.6-1.8,0.8
		c-0.3,0.1-0.7,0.1-1,0.2c-0.3,0-0.7,0.1-1,0.1c-0.4,0-0.7,0-1,0c-0.3,0-0.6,0-0.8,0c-1.3,0-2.5-0.2-3.7-0.7c-1.1-0.5-2.1-1.1-3-2
		c-0.9-0.9-1.5-1.9-2-3.1c-0.5-1.2-0.8-2.5-0.8-3.9c0-1.3,0.2-2.6,0.7-3.8c0.5-1.2,1.1-2.3,1.9-3.3c0.8-0.9,1.8-1.7,3-2.3
		c1.2-0.6,2.5-0.9,3.9-0.9c1.1,0,2.2,0.2,3.4,0.5c1.2,0.3,2.2,0.9,3.1,1.7c0.2,0.2,0.4,0.4,0.6,0.7c0.2,0.3,0.3,0.6,0.3,1
		c0,0.6-0.2,1.1-0.6,1.5C1348.6,1046.2,1348.1,1046.4,1347.6,1046.4L1347.6,1046.4z M1359.5,1034.6c0,0.8-0.3,1.5-0.8,2.1
		c-0.6,0.6-1.3,0.8-2.1,0.8c-0.8,0-1.5-0.3-2.1-0.8c-0.6-0.6-0.8-1.3-0.8-2.1c0-0.8,0.3-1.5,0.8-2.1c0.6-0.6,1.3-0.8,2.1-0.8
		c0.8,0,1.5,0.3,2.1,0.8C1359.3,1033.1,1359.5,1033.8,1359.5,1034.6L1359.5,1034.6z M1359,1042.5l0,15.3c0,0.7-0.2,1.3-0.7,1.8
		c-0.5,0.5-1,0.8-1.7,0.8c-0.6,0-1.2-0.3-1.7-0.8c-0.5-0.5-0.7-1.1-0.7-1.8l0-15.3c0-0.3,0.1-0.6,0.2-0.9c0.2-0.3,0.3-0.5,0.6-0.8
		c0.2-0.2,0.5-0.4,0.8-0.5c0.3-0.1,0.6-0.2,0.8-0.2c0.3,0,0.5,0.1,0.8,0.2c0.3,0.1,0.5,0.3,0.8,0.5c0.2,0.2,0.4,0.5,0.6,0.8
		C1358.9,1041.9,1359,1042.2,1359,1042.5L1359,1042.5z M1378.3,1060.5c-0.7,0-1.2-0.2-1.6-0.7c-0.4-0.5-0.6-1-0.6-1.6v-8
		c0-0.8,0-1.5-0.1-2.1c-0.1-0.7-0.2-1.2-0.5-1.7c-0.2-0.5-0.6-0.8-1-1.1c-0.4-0.3-1-0.4-1.8-0.4c-0.6,0-1.3,0.1-1.9,0.3
		c-0.6,0.2-1.1,0.5-1.5,0.8v12c0,0.6-0.2,1.1-0.6,1.7c-0.4,0.5-0.9,0.8-1.6,0.8c-0.7,0-1.2-0.3-1.6-0.8c-0.4-0.5-0.6-1.1-0.6-1.7
		V1043c0-0.8,0.2-1.4,0.7-1.8c0.4-0.4,1-0.6,1.7-0.6c0.4,0,0.8,0.1,1.2,0.3c0.3,0.2,0.6,0.5,0.7,0.8c0.5-0.4,1-0.7,1.7-0.9
		c0.6-0.2,1.3-0.3,2.1-0.3c2.7,0,4.7,0.8,5.9,2.3c1.3,1.6,1.9,3.7,1.9,6.3v9c0,0.6-0.2,1.2-0.6,1.6
		C1379.5,1060.2,1379,1060.5,1378.3,1060.5L1378.3,1060.5z M1400.3,1060.7c-0.8,0-1.5-0.3-2-1c-0.5,0.2-1.1,0.4-1.9,0.5
		c-0.7,0.2-1.3,0.2-1.8,0.2c-1.5,0-2.8-0.2-4-0.7c-1.2-0.5-2.3-1.1-3.2-2c-0.9-0.9-1.6-1.9-2.1-3.1c-0.5-1.2-0.8-2.6-0.8-4
		c0-1.5,0.2-2.8,0.7-4c0.5-1.2,1.2-2.3,2.1-3.2c0.9-0.9,1.9-1.6,3.2-2.1c1.2-0.5,2.6-0.8,4.1-0.8c0.4,0,0.9,0.1,1.4,0.2
		c0.6,0.1,1,0.3,1.4,0.6c0.4-0.6,0.9-0.9,1.6-0.9c0.7,0,1.3,0.2,1.6,0.7c0.3,0.4,0.5,1,0.5,1.6v10.4c0,0.5,0,1.1,0.1,1.7
		c0.1,0.6,0.3,1.1,0.5,1.6c0.2,0.4,0.3,0.7,0.5,1c0.2,0.3,0.3,0.7,0.3,1.1c0,0.6-0.2,1.1-0.7,1.6
		C1401.4,1060.4,1400.9,1060.7,1400.3,1060.7L1400.3,1060.7z M1396.9,1054.5v-9.4c-0.3-0.2-0.7-0.3-1.1-0.4
		c-0.4-0.1-0.8-0.2-1.1-0.2c-0.8,0-1.6,0.1-2.3,0.4c-0.7,0.3-1.3,0.7-1.8,1.2c-0.5,0.5-0.9,1.1-1.2,1.9c-0.3,0.7-0.4,1.5-0.4,2.3
		c0,0.8,0.1,1.6,0.4,2.4c0.3,0.7,0.7,1.4,1.2,1.9c0.5,0.5,1.1,1,1.8,1.3c0.7,0.3,1.5,0.5,2.4,0.5c0.4,0,0.8,0,1.2-0.1
		c0.4-0.1,0.8-0.2,1.2-0.3c-0.1-0.3-0.1-0.5-0.1-0.7C1396.9,1055,1396.9,1054.7,1396.9,1054.5L1396.9,1054.5z M1441.1,1057.9
		c0,0.8-0.3,1.4-0.8,1.9c-0.5,0.5-1.1,0.7-1.7,0.7c-0.9,0-1.6-0.4-2.1-1.1l-12.8-19.4v17.9c0,0.7-0.2,1.3-0.7,1.8
		c-0.5,0.5-1.1,0.7-1.7,0.7c-0.7,0-1.3-0.2-1.8-0.7c-0.5-0.5-0.7-1.1-0.7-1.8v-25.5c0-0.8,0.3-1.4,0.8-1.8c0.5-0.4,1.1-0.7,1.8-0.7
		c0.4,0,0.7,0.1,1.1,0.2c0.4,0.1,0.7,0.4,0.9,0.7l13,19.6v-18.1c0-0.7,0.3-1.3,0.8-1.8c0.5-0.5,1.1-0.7,1.8-0.7
		c0.7,0,1.3,0.2,1.7,0.7c0.5,0.5,0.7,1.1,0.7,1.8L1441.1,1057.9L1441.1,1057.9z M1461,1060.7c-0.8,0-1.5-0.3-2-1
		c-0.5,0.2-1.1,0.4-1.9,0.5c-0.7,0.2-1.3,0.2-1.9,0.2c-1.5,0-2.8-0.2-4-0.7c-1.2-0.5-2.3-1.1-3.2-2c-0.9-0.9-1.6-1.9-2.1-3.1
		c-0.5-1.2-0.8-2.6-0.8-4c0-1.5,0.2-2.8,0.7-4c0.5-1.2,1.2-2.3,2.1-3.2c0.9-0.9,1.9-1.6,3.2-2.1c1.2-0.5,2.6-0.8,4.1-0.8
		c0.4,0,0.9,0.1,1.4,0.2c0.6,0.1,1,0.3,1.4,0.6c0.4-0.6,1-0.9,1.6-0.9c0.7,0,1.3,0.2,1.6,0.7c0.3,0.4,0.5,1,0.5,1.6v10.4
		c0,0.5,0,1.1,0.1,1.7c0.1,0.6,0.3,1.1,0.5,1.6c0.2,0.4,0.3,0.7,0.5,1c0.2,0.3,0.3,0.7,0.3,1.1c0,0.6-0.2,1.1-0.7,1.6
		C1462.1,1060.4,1461.6,1060.7,1461,1060.7L1461,1060.7z M1457.6,1054.5v-9.4c-0.3-0.2-0.7-0.3-1.1-0.4c-0.4-0.1-0.8-0.2-1.1-0.2
		c-0.8,0-1.6,0.1-2.3,0.4c-0.7,0.3-1.3,0.7-1.8,1.2c-0.5,0.5-0.9,1.1-1.2,1.9c-0.3,0.7-0.4,1.5-0.4,2.3c0,0.8,0.1,1.6,0.4,2.4
		c0.3,0.7,0.7,1.4,1.2,1.9c0.5,0.5,1.1,1,1.8,1.3c0.7,0.3,1.5,0.5,2.4,0.5c0.4,0,0.8,0,1.2-0.1c0.4-0.1,0.8-0.2,1.2-0.3
		c-0.1-0.3-0.1-0.5-0.1-0.7C1457.6,1055,1457.6,1054.7,1457.6,1054.5L1457.6,1054.5z M1476.9,1060.5h-1c-1.1,0-2-0.2-2.7-0.6
		c-0.8-0.4-1.4-0.9-1.9-1.6c-0.5-0.6-0.9-1.4-1.2-2.2c-0.3-0.8-0.4-1.7-0.4-2.5v-9.2h-0.8c-0.6,0-1.1-0.1-1.6-0.4
		c-0.5-0.3-0.8-0.8-0.8-1.4c0-0.7,0.2-1.2,0.7-1.6c0.5-0.4,1-0.6,1.7-0.6h0.8v-4.1c0-0.7,0.2-1.2,0.6-1.7c0.4-0.5,0.9-0.7,1.6-0.7
		c0.6,0,1.2,0.2,1.6,0.7c0.4,0.5,0.6,1.1,0.6,1.7v4.1h2.7c0.6,0,1.2,0.2,1.7,0.6c0.5,0.4,0.7,0.9,0.7,1.6c0,0.7-0.3,1.1-0.8,1.4
		c-0.5,0.3-1,0.4-1.6,0.4h-2.7v8.7c0,1.1,0.3,1.9,0.8,2.4c0.5,0.4,1.2,0.7,2.1,0.7c0.5,0,0.9,0.2,1.4,0.6c0.5,0.3,0.8,0.8,0.8,1.4
		c0,0.6-0.2,1.1-0.6,1.6C1478.1,1060.2,1477.6,1060.5,1476.9,1060.5L1476.9,1060.5z M1497.7,1060.7c-0.5,0-0.9-0.1-1.2-0.3
		c-0.4-0.2-0.6-0.5-0.8-0.8c-0.5,0.3-1.1,0.5-1.8,0.7c-0.8,0.2-1.7,0.3-2.8,0.3c-0.9,0-1.8-0.1-2.7-0.3c-1-0.2-1.8-0.6-2.6-1.2
		c-0.8-0.6-1.5-1.5-2-2.6c-0.5-1.1-0.8-2.6-0.8-4.5v-9.1c0-0.7,0.2-1.2,0.7-1.6c0.5-0.4,1-0.7,1.6-0.7c0.6,0,1.1,0.2,1.6,0.7
		c0.4,0.4,0.6,1,0.6,1.6v7.8c0,1.9,0.2,3.3,0.7,4.3c0.5,1,1.5,1.5,3,1.5c0.5,0,0.9,0,1.2-0.1c0.3,0,0.7-0.1,1-0.2
		c0.2-0.1,0.4-0.1,0.6-0.2c0.2-0.1,0.4-0.1,0.6-0.2c-0.1-0.3-0.2-0.7-0.2-1.1c0-0.4,0-0.7,0-0.8v-10.9c0-0.7,0.2-1.2,0.6-1.7
		c0.4-0.5,1-0.7,1.6-0.7c0.6,0,1.2,0.2,1.6,0.7c0.4,0.5,0.6,1,0.6,1.7v10.3c0,1,0.1,1.8,0.3,2.4c0.2,0.6,0.4,1.2,0.8,1.8
		c0.2,0.4,0.3,0.9,0.3,1.3c0,0.4-0.2,0.8-0.3,1.1c-0.2,0.3-0.5,0.6-0.8,0.8C1498.4,1060.6,1498,1060.7,1497.7,1060.7L1497.7,1060.7z
		 M1514.1,1044.7c-0.2-0.1-0.3-0.1-0.6-0.2c-0.2,0-0.5-0.1-0.8-0.1c-0.5,0-0.9,0.1-1.4,0.3c-0.5,0.2-1,0.5-1.4,0.8
		c-0.4,0.3-0.8,0.7-1.2,1.2c-0.3,0.5-0.6,1-0.7,1.5v9.6c0,0.7-0.2,1.3-0.7,1.8c-0.4,0.5-1,0.8-1.7,0.8c-0.7,0-1.2-0.3-1.7-0.8
		c-0.5-0.5-0.7-1.1-0.7-1.8v-15c0-0.5,0.1-0.9,0.2-1.2c0.2-0.3,0.4-0.6,0.6-0.7c0.2-0.2,0.5-0.3,0.8-0.4c0.3-0.1,0.6-0.1,0.8-0.1
		c0.5,0,0.9,0.1,1.3,0.4c0.4,0.2,0.7,0.6,0.8,1.2c1-0.8,1.9-1.3,2.8-1.4c0.9-0.2,1.7-0.2,2.3-0.2c0.5,0,1,0.1,1.5,0.2
		c0.5,0.1,0.9,0.3,1.2,0.4c0.8,0.4,1.2,0.8,1.4,1.4c0.2,0.5,0.2,1-0.1,1.5c-0.2,0.4-0.6,0.8-1.1,1
		C1515.4,1045,1514.8,1045,1514.1,1044.7L1514.1,1044.7z M1535,1060.7c-0.8,0-1.5-0.3-2-1c-0.5,0.2-1.1,0.4-1.8,0.5
		c-0.7,0.2-1.3,0.2-1.8,0.2c-1.5,0-2.8-0.2-4-0.7c-1.2-0.5-2.3-1.1-3.2-2c-0.9-0.9-1.6-1.9-2.1-3.1c-0.5-1.2-0.8-2.6-0.8-4
		c0-1.5,0.2-2.8,0.7-4c0.5-1.2,1.2-2.3,2.1-3.2c0.9-0.9,1.9-1.6,3.2-2.1c1.2-0.5,2.6-0.8,4.1-0.8c0.4,0,0.9,0.1,1.4,0.2
		c0.6,0.1,1,0.3,1.4,0.6c0.4-0.6,1-0.9,1.6-0.9c0.7,0,1.3,0.2,1.6,0.7c0.3,0.4,0.5,1,0.5,1.6v10.4c0,0.5,0,1.1,0.1,1.7
		c0.1,0.6,0.3,1.1,0.5,1.6c0.2,0.4,0.3,0.7,0.5,1c0.2,0.3,0.3,0.7,0.3,1.1c0,0.6-0.2,1.1-0.7,1.6
		C1536.2,1060.4,1535.6,1060.7,1535,1060.7L1535,1060.7z M1531.6,1054.5v-9.4c-0.3-0.2-0.7-0.3-1.1-0.4c-0.4-0.1-0.8-0.2-1.1-0.2
		c-0.8,0-1.6,0.1-2.3,0.4c-0.7,0.3-1.3,0.7-1.8,1.2c-0.5,0.5-0.9,1.1-1.2,1.9c-0.3,0.7-0.4,1.5-0.4,2.3c0,0.8,0.1,1.6,0.4,2.4
		c0.3,0.7,0.7,1.4,1.2,1.9c0.5,0.5,1.1,1,1.8,1.3c0.7,0.3,1.5,0.5,2.4,0.5c0.4,0,0.8,0,1.2-0.1c0.4-0.1,0.8-0.2,1.2-0.3
		c-0.1-0.3-0.1-0.5-0.1-0.7C1531.6,1055,1531.6,1054.7,1531.6,1054.5L1531.6,1054.5z M1548.4,1057.2c0.3,0.4,0.4,0.9,0.3,1.3
		c0,0.4-0.1,0.8-0.3,1.1c-0.2,0.3-0.4,0.6-0.8,0.8c-0.3,0.2-0.7,0.3-1.1,0.3c-0.6,0-1.1-0.1-1.5-0.4c-0.4-0.3-0.8-0.7-1.3-1.3
		c-0.3-0.4-0.6-1.2-0.9-2.2c-0.3-1-0.4-2.2-0.4-3.7v-20.9c0-0.3,0.1-0.6,0.2-0.9c0.1-0.3,0.3-0.5,0.6-0.7c0.2-0.2,0.5-0.4,0.8-0.5
		c0.3-0.1,0.5-0.2,0.8-0.2c0.3,0,0.6,0.1,0.8,0.2c0.3,0.1,0.5,0.3,0.8,0.5c0.2,0.2,0.4,0.5,0.6,0.7c0.1,0.3,0.2,0.6,0.2,0.9v20.2
		c0,1.1,0.1,2.1,0.4,2.9C1547.9,1056.3,1548.2,1056.9,1548.4,1057.2L1548.4,1057.2z"/>
</g>
</svg>
